REM DIRINDEX 1\2,1\3,1\4,1\5,1\6
REM DIRNAME cjc091,folder01,folder02,folder03,folder04,folder05
TITLE ""
FILE "CD1-20.mp3" MP3
  TRACK 01 AUDIO
    TITLE "6:cjc091_0397"
    INDEX 01 00:00:00
  TRACK 02 AUDIO
    TITLE "0:"
    INDEX 01 00:01:62
  TRACK 03 AUDIO
    TITLE "2:cjc091_0398"
    INDEX 01 00:03:10
  TRACK 04 AUDIO
    TITLE "0:"
    INDEX 01 00:04:56
  TRACK 05 AUDIO
    TITLE "3:cjc091_0399"
    INDEX 01 00:04:64
  TRACK 06 AUDIO
    TITLE "0:"
    INDEX 01 00:06:26
  TRACK 07 AUDIO
    TITLE "4:cjc091_0400"
    INDEX 01 00:06:39
  TRACK 08 AUDIO
    TITLE "0:"
    INDEX 01 00:12:14
  TRACK 09 AUDIO
    TITLE "2:cjc091_0401"
    INDEX 01 00:13:20
  TRACK 10 AUDIO
    TITLE "0:"
    INDEX 01 00:14:31
  TRACK 11 AUDIO
    TITLE "3:cjc091_0402"
    INDEX 01 00:14:47
  TRACK 12 AUDIO
    TITLE "0:"
    INDEX 01 00:16:40
  TRACK 13 AUDIO
    TITLE "4:cjc091_0403"
    INDEX 01 00:16:51
  TRACK 14 AUDIO
    TITLE "0:"
    INDEX 01 00:20:43
  TRACK 15 AUDIO
    TITLE "2:cjc091_0404"
    INDEX 01 00:21:57
  TRACK 16 AUDIO
    TITLE "0:"
    INDEX 01 00:22:74
  TRACK 17 AUDIO
    TITLE "3:cjc091_0405"
    INDEX 01 00:23:10
  TRACK 18 AUDIO
    TITLE "0:"
    INDEX 01 00:24:29
  TRACK 19 AUDIO
    TITLE "4:cjc091_0406"
    INDEX 01 00:24:47
  TRACK 20 AUDIO
    TITLE "0:"
    INDEX 01 00:28:17
  TRACK 21 AUDIO
    TITLE "2:cjc091_0407"
    INDEX 01 00:29:23
  TRACK 22 AUDIO
    TITLE "0:"
    INDEX 01 00:30:22
  TRACK 23 AUDIO
    TITLE "3:cjc091_0408"
    INDEX 01 00:30:42
  TRACK 24 AUDIO
    TITLE "0:"
    INDEX 01 00:32:01
  TRACK 25 AUDIO
    TITLE "4:cjc091_0409"
    INDEX 01 00:32:15
  TRACK 26 AUDIO
    TITLE "0:"
    INDEX 01 00:34:59
  TRACK 27 AUDIO
    TITLE "2:cjc091_0410"
    INDEX 01 00:35:64
  TRACK 28 AUDIO
    TITLE "0:"
    INDEX 01 00:37:22
  TRACK 29 AUDIO
    TITLE "3:cjc091_0411"
    INDEX 01 00:37:36
  TRACK 30 AUDIO
    TITLE "0:"
    INDEX 01 00:39:19
  TRACK 31 AUDIO
    TITLE "4:cjc091_0412"
    INDEX 01 00:39:35
  TRACK 32 AUDIO
    TITLE "0:"
    INDEX 01 00:43:35
  TRACK 33 AUDIO
    TITLE "2:cjc091_0413"
    INDEX 01 00:44:40
  TRACK 34 AUDIO
    TITLE "0:"
    INDEX 01 00:46:31
  TRACK 35 AUDIO
    TITLE "3:cjc091_0414"
    INDEX 01 00:46:43
  TRACK 36 AUDIO
    TITLE "0:"
    INDEX 01 00:48:55
  TRACK 37 AUDIO
    TITLE "4:cjc091_0415"
    INDEX 01 00:48:73
  TRACK 38 AUDIO
    TITLE "0:"
    INDEX 01 00:52:04
  TRACK 39 AUDIO
    TITLE "2:cjc091_0416"
    INDEX 01 00:53:15
  TRACK 40 AUDIO
    TITLE "0:"
    INDEX 01 00:54:25
  TRACK 41 AUDIO
    TITLE "3:cjc091_0417"
    INDEX 01 00:54:46
  TRACK 42 AUDIO
    TITLE "0:"
    INDEX 01 00:56:31
  TRACK 43 AUDIO
    TITLE "4:cjc091_0418"
    INDEX 01 00:56:51
  TRACK 44 AUDIO
    TITLE "0:"
    INDEX 01 00:58:66
  TRACK 45 AUDIO
    TITLE "2:cjc091_0419"
    INDEX 01 01:00:04
  TRACK 46 AUDIO
    TITLE "0:"
    INDEX 01 01:01:40
  TRACK 47 AUDIO
    TITLE "3:cjc091_0420"
    INDEX 01 01:01:48
  TRACK 48 AUDIO
    TITLE "0:"
    INDEX 01 01:02:55
  TRACK 49 AUDIO
    TITLE "4:cjc091_0421"
    INDEX 01 01:02:73
  TRACK 50 AUDIO
    TITLE "0:"
    INDEX 01 01:06:49
  TRACK 51 AUDIO
    TITLE "2:cjc091_0422"
    INDEX 01 01:07:59
  TRACK 52 AUDIO
    TITLE "0:"
    INDEX 01 01:09:16
  TRACK 53 AUDIO
    TITLE "3:cjc091_0423"
    INDEX 01 01:09:38
  TRACK 54 AUDIO
    TITLE "0:"
    INDEX 01 01:11:25
  TRACK 55 AUDIO
    TITLE "4:cjc091_0424"
    INDEX 01 01:11:43
  TRACK 56 AUDIO
    TITLE "0:"
    INDEX 01 01:15:11
  TRACK 57 AUDIO
    TITLE "2:cjc091_0425"
    INDEX 01 01:16:22
  TRACK 58 AUDIO
    TITLE "0:"
    INDEX 01 01:17:67
  TRACK 59 AUDIO
    TITLE "3:cjc091_0426"
    INDEX 01 01:18:13
  TRACK 60 AUDIO
    TITLE "0:"
    INDEX 01 01:20:46
  TRACK 61 AUDIO
    TITLE "4:cjc091_0427"
    INDEX 01 01:20:67
  TRACK 62 AUDIO
    TITLE "0:"
    INDEX 01 01:23:52
  TRACK 63 AUDIO
    TITLE "2:cjc091_0428"
    INDEX 01 01:24:57
  TRACK 64 AUDIO
    TITLE "0:"
    INDEX 01 01:26:07
  TRACK 65 AUDIO
    TITLE "3:cjc091_0429"
    INDEX 01 01:26:21
  TRACK 66 AUDIO
    TITLE "0:"
    INDEX 01 01:28:08
  TRACK 67 AUDIO
    TITLE "4:cjc091_0430"
    INDEX 01 01:28:25
  TRACK 68 AUDIO
    TITLE "0:"
    INDEX 01 01:31:61
  TRACK 69 AUDIO
    TITLE "2:cjc091_0431"
    INDEX 01 01:32:72
  TRACK 70 AUDIO
    TITLE "0:"
    INDEX 01 01:34:32
  TRACK 71 AUDIO
    TITLE "3:cjc091_0432"
    INDEX 01 01:34:54
  TRACK 72 AUDIO
    TITLE "0:"
    INDEX 01 01:36:64
  TRACK 73 AUDIO
    TITLE "4:cjc091_0433"
    INDEX 01 01:37:11
  TRACK 74 AUDIO
    TITLE "0:"
    INDEX 01 01:41:73
  TRACK 75 AUDIO
    TITLE "2:cjc091_0434"
    INDEX 01 01:43:11
  TRACK 76 AUDIO
    TITLE "0:"
    INDEX 01 01:45:04
  TRACK 77 AUDIO
    TITLE "3:cjc091_0435"
    INDEX 01 01:45:10
  TRACK 78 AUDIO
    TITLE "0:"
    INDEX 01 01:46:47
  TRACK 79 AUDIO
    TITLE "4:cjc091_0436"
    INDEX 01 01:46:68
  TRACK 80 AUDIO
    TITLE "0:"
    INDEX 01 01:51:13
  TRACK 81 AUDIO
    TITLE "2:cjc091_0437"
    INDEX 01 01:52:26
  TRACK 82 AUDIO
    TITLE "0:"
    INDEX 01 01:54:19
  TRACK 83 AUDIO
    TITLE "3:cjc091_0438"
    INDEX 01 01:54:37
  TRACK 84 AUDIO
    TITLE "0:"
    INDEX 01 01:56:22
  TRACK 85 AUDIO
    TITLE "4:cjc091_0439"
    INDEX 01 01:56:39
  TRACK 86 AUDIO
    TITLE "0:"
    INDEX 01 01:59:40
  TRACK 87 AUDIO
    TITLE "2:cjc091_0440"
    INDEX 01 02:00:47
  TRACK 88 AUDIO
    TITLE "0:"
    INDEX 01 02:02:28
  TRACK 89 AUDIO
    TITLE "3:cjc091_0441"
    INDEX 01 02:02:44
  TRACK 90 AUDIO
    TITLE "0:"
    INDEX 01 02:04:37
  TRACK 91 AUDIO
    TITLE "4:cjc091_0442"
    INDEX 01 02:04:53
  TRACK 92 AUDIO
    TITLE "0:"
    INDEX 01 02:07:71
